<?xml version="1.0" encoding="utf-8"?>
<!-- Generator: Adobe Illustrator 19.0.0, SVG Export Plug-In . SVG Version: 6.00 Build 0)  -->
<svg version="1.1" id="图层_1" xmlns="http://www.w3.org/2000/svg" xmlns:xlink="http://www.w3.org/1999/xlink" x="0px" y="0px"
	 viewBox="0 -7 24 24" style="enable-background:new 0 -7 24 24;" xml:space="preserve">
<style type="text/css">
	.st0{fill:none;}
</style>
<title>Web&amp;Mac Icon/Attachment</title>
<desc>Created with Sketch.</desc>
<rect id="bg" y="-7" class="st0" width="24" height="24"/>
<path d="M18.4,2.1L18.4,2.1L18.4,2.1L18.4,2.1c-1.1-1-2.7-1-3.7,0L8.3,8.5L9,9.2l6.5-6.5c0.6-0.6,1.6-0.6,2.2,0
	c0.6,0.6,0.6,1.6,0,2.2l-5.7,5.7c-1.4,1.4-3.7,1.4-5.1,0C5.4,9.3,5.4,7,6.8,5.6l8.3-8.3l-0.7-0.7L6.1,4.9c-1.8,1.8-1.8,4.7,0,6.5
	c1.8,1.8,4.7,1.8,6.5,0l5.7-5.7C19.3,4.7,19.3,3.1,18.4,2.1z"/>
</svg>
