<?xml version="1.0" encoding="utf-8"?><svg xmlns="http://www.w3.org/2000/svg" xmlns:xlink="http://www.w3.org/1999/xlink"><symbol viewBox="0 0 20 20" id="ac-share-join" xmlns="http://www.w3.org/2000/svg"><path d="M10 1c-5 0-9 4-9 9s4 9 9 9 9-4 9-9-4-9-9-9zm-7 9V9h7.3L8.7 7.4l.7-.7 2.5 2.5c.2.2.2.5 0 .7l-2.5 2.5-.7-.7 1.6-1.7H3zm12 3.5c0 .8-.7 1.5-1.5 1.5h-7c-.8 0-1.5-.7-1.5-1.5V12h1v1.5c0 .3.2.5.5.5h7c.3 0 .5-.2.5-.5v-8c0-.3-.2-.5-.5-.5h-7c-.3 0-.5.2-.5.5V7H5V5.5C5 4.7 5.7 4 6.5 4h7c.8 0 1.5.7 1.5 1.5v8z"/></symbol><symbol id="ac-undone" viewBox="0 0 20 20" xmlns="http://www.w3.org/2000/svg"><style>.st0{fill:#fff;stroke:#000;stroke-miterlimit:10}</style><path d="M10 1c-5 0-9 4-9 9s4 9 9 9 9-4 9-9-4-9-9-9zm1.4 14.3l-.5.1-.3-1 .5-.1c2.4-.6 3.8-3.1 3.2-5.5-.6-2.4-3.1-3.8-5.5-3.1-1.1.3-2.1 1-2.7 2.1-.5.9-.7 2-.5 3l1.2-1.2.7.7-2.1 2.1c-.1.1-.2.1-.4.1s-.3 0-.4-.1l-2-2.2.7-.7 1.3 1.3c-.2-1.2 0-2.5.6-3.6.8-1.2 2-2.1 3.4-2.5 2.9-.8 6 1 6.7 3.9.8 2.9-.9 5.9-3.9 6.7z"/></symbol><symbol id="attachment" viewBox="0 -7 24 24" xmlns="http://www.w3.org/2000/svg"><style>.cst0{fill:none}</style><path id="cbg" class="cst0" d="M0-7h24v24H0z"/><path d="M18.4 2.1c-1.1-1-2.7-1-3.7 0L8.3 8.5l.7.7 6.5-6.5c.6-.6 1.6-.6 2.2 0 .6.6.6 1.6 0 2.2L12 10.6c-1.4 1.4-3.7 1.4-5.1 0-1.5-1.3-1.5-3.6-.1-5l8.3-8.3-.7-.7-8.3 8.3c-1.8 1.8-1.8 4.7 0 6.5 1.8 1.8 4.7 1.8 6.5 0l5.7-5.7c1-1 1-2.6.1-3.6z"/></symbol></svg>